<svg width="30" height="30" viewBox="0 0 30 30" fill="none" xmlns="http://www.w3.org/2000/svg">
<rect width="30" height="30" rx="6" fill="#FEC02F"/>
<g clip-path="url(#clip0)" filter="url(#filter0_d)">
<path d="M21.0882 11.2753H13.5118L12.0047 9.48413C11.954 9.42319 11.878 9.38901 11.7988 9.39148H5.68618C4.75291 9.39828 4 10.1567 4 11.09V22.1068C4.00113 23.0432 4.76001 23.8021 5.69647 23.8033H21.0882C22.0247 23.8021 22.7836 23.0432 22.7847 22.1068V12.9718C22.7836 12.0353 22.0247 11.2764 21.0882 11.2753Z" fill="black"/>
<path d="M23.3139 9.08073H15.7354L14.2283 7.28955C14.1776 7.22861 14.1016 7.19443 14.0224 7.1969H7.91183C7.06503 7.19829 6.34897 7.82387 6.23389 8.66279H11.8071C12.0994 8.66206 12.3768 8.79105 12.5648 9.01484L13.8515 10.5446H21.0883C22.4268 10.5468 23.5113 11.6314 23.5136 12.9698V21.5922C24.3622 21.4863 24.9994 20.7654 25.0001 19.9101V10.7751C24.9978 9.84347 24.2455 9.08752 23.3139 9.08073Z" fill="black"/>
</g>
<defs>
<filter id="filter0_d" x="3" y="4" width="23" height="23" filterUnits="userSpaceOnUse" color-interpolation-filters="sRGB">
<feFlood flood-opacity="0" result="BackgroundImageFix"/>
<feColorMatrix in="SourceAlpha" type="matrix" values="0 0 0 0 0 0 0 0 0 0 0 0 0 0 0 0 0 0 127 0"/>
<feOffset/>
<feGaussianBlur stdDeviation="0.5"/>
<feColorMatrix type="matrix" values="0 0 0 0 0 0 0 0 0 0 0 0 0 0 0 0 0 0 0.5 0"/>
<feBlend mode="normal" in2="BackgroundImageFix" result="effect1_dropShadow"/>
<feBlend mode="normal" in="SourceGraphic" in2="effect1_dropShadow" result="shape"/>
</filter>
<clipPath id="clip0">
<rect width="21" height="21" fill="white" transform="translate(4 5)"/>
</clipPath>
</defs>
</svg>
